<svg xmlns="http://www.w3.org/2000/svg" version="1.1" xmlns:xlink="http://www.w3.org/1999/xlink" xmlns:svgjs="http://svgjs.com/svgjs" width="512" height="512" x="0" y="0" viewBox="0 0 60 60" style="enable-background:new 0 0 512 512" xml:space="preserve" class=""><g transform="matrix(1,0,0,1,0,0)"><circle cx="30" cy="30" r="29" fill="#083644" data-original="#547580" class=""></circle><g fill="#3f5c6c"><path d="M55 31a1 1 0 0 1-1-1A24.028 24.028 0 0 0 30 6a1 1 0 0 1 0-2 26.029 26.029 0 0 1 26 26 1 1 0 0 1-1 1zM30 56A26.029 26.029 0 0 1 4 30a1 1 0 0 1 2 0 24.028 24.028 0 0 0 24 24 1 1 0 0 1 0 2z" fill="#106081" data-original="#3f5c6c" class=""></path><path d="M28.941 51.975A21.9 21.9 0 0 1 8.025 31.064a1 1 0 0 1 .952-1.046.99.99 0 0 1 1.046.951 19.909 19.909 0 0 0 19.013 19.008 1 1 0 1 1-.1 2zM50.976 30.007a1 1 0 0 1-1-.953 20.148 20.148 0 0 0-19.021-19.032A1 1 0 0 1 30 8.977a1.023 1.023 0 0 1 1.046-.953 22.166 22.166 0 0 1 20.93 20.936 1 1 0 0 1-1 1.047z" fill="#106081" data-original="#3f5c6c" class=""></path></g><circle cx="30" cy="30" r="17" fill="#ff4500" data-original="#ff5364" class=""></circle><circle cx="30" cy="30" r="13" fill="#ffffff" data-original="#ecf0f1" class=""></circle><path fill="#ff4500" d="M30 25.52S31.075 23 33.5 23c2.072 0 3.5 2.007 3.5 4.384 0 3.288-2.849 5.465-7 9.616-4.151-4.151-7-6.328-7-9.616C23 25.007 24.428 23 26.5 23c2.425 0 3.5 2.52 3.5 2.52z" data-original="#ff5364" class=""></path></g></svg>
