<svg width="0" height="0" className="hidden">
        <symbol
          xmlns="http://www.w3.org/2000/svg"
          viewBox="0 0 20 20"
          id="plus"
        >
          <path
            d="M9.99992 16.6667V9.99999M9.99992 9.99999V3.33333M9.99992 9.99999H16.6666M9.99992 9.99999H3.33325"
            stroke-linecap="round"
            stroke-linejoin="round"
          ></path>
        </symbol>
        <symbol
          xmlns="http://www.w3.org/2000/svg"
          viewBox="0 0 24 25"
          id="folder"
        >
          <path
            d="M21 19.0731V10.1842C21 9.71273 20.8104 9.26054 20.4728 8.92715C20.1352 8.59375 19.6774 8.40645 19.2 8.40645H13.1124C12.7781 8.40644 12.4503 8.31445 12.1659 8.14081C11.8816 7.96717 11.6518 7.71873 11.5023 7.42334L10.6977 5.834C10.5482 5.53848 10.3182 5.28995 10.0337 5.11629C9.74912 4.94264 9.4212 4.85074 9.0867 4.85089H4.8C4.32261 4.85089 3.86477 5.03819 3.52721 5.37159C3.18964 5.70499 3 6.15717 3 6.62867V19.0731C3 19.5446 3.18964 19.9968 3.52721 20.3302C3.86477 20.6636 4.32261 20.8509 4.8 20.8509H19.2C19.6774 20.8509 20.1352 20.6636 20.4728 20.3302C20.8104 19.9968 21 19.5446 21 19.0731Z"
            stroke-linecap="round"
            stroke-linejoin="round"
          ></path>
        </symbol>
        <symbol
          xmlns="http://www.w3.org/2000/svg"
          viewBox="0 0 24 24"
          id="heart"
        >
          <path
            d="M21 9.32647C21 14.4974 12 20 12 20C12 20 3 14.4974 3 9.32647C3 2.30564 12 2.40044 12 8.57947C12 2.40044 21 2.49288 21 9.32647Z"
            stroke-linejoin="round"
          ></path>
        </symbol>
        <symbol
          xmlns="http://www.w3.org/2000/svg"
          viewBox="0 0 24 24"
          id="chevron"
        >
          <path
            d="M6 9L12 15L18 9"
            stroke-linecap="round"
            stroke-linejoin="round"
          ></path>
        </symbol>
        <symbol
          xmlns="http://www.w3.org/2000/svg"
          viewBox="0 0 20 20"
          id="check"
        >
          <path
            d="M4 10L8.5 14L16 6"
            stroke-linecap="round"
            stroke-linejoin="round"
          ></path>
        </symbol>
        <symbol
          xmlns="http://www.w3.org/2000/svg"
          viewBox="0 0 71 71"
          id="globe-search"
        >
          <path
            d="M34.9823 63.0125C31.2844 62.9139 27.7837 62.1497 24.4802 60.7198C21.1767 59.2899 18.317 57.3177 15.901 54.8031C13.4851 52.2885 11.5622 49.3839 10.1323 46.0891C8.70243 42.7944 7.9875 39.2634 7.9875 35.496C7.9875 31.7021 8.71747 28.1381 10.1774 24.8038C11.6373 21.4695 13.6064 18.5633 16.0845 16.085C18.5626 13.6067 21.4686 11.6376 24.8027 10.1776C28.1367 8.71752 31.7025 7.9875 35.5 7.9875C42.7282 7.9875 48.9481 10.4035 54.1597 15.2354C59.3713 20.0674 62.2976 26.0333 62.9385 33.1333H60.35C59.938 28.4464 58.3558 24.2177 55.6035 20.4473C52.8512 16.6769 49.2563 13.9042 44.8188 12.1292V13.5344C44.8188 15.3094 44.2271 16.8009 43.0438 18.0089C41.8604 19.2168 40.3813 19.8208 38.6063 19.8208H32.3938V26.1073C32.3938 26.9738 32.0979 27.6958 31.5063 28.2733C30.9146 28.8508 30.175 29.1396 29.2875 29.1396H23.001V35.426H28.6219V44.6708H26.1813L11.1677 29.8052C11.0198 30.6927 10.8842 31.6213 10.7609 32.591C10.6377 33.5606 10.576 34.5371 10.576 35.5203C10.576 42.2616 12.9304 48.0729 17.6391 52.9542C22.3477 57.8354 28.1288 60.3254 34.9823 60.424V63.0125ZM62.125 61.0156L51.6229 50.6615C50.7354 51.3517 49.7986 51.8448 48.8125 52.1406C47.8264 52.4365 46.851 52.5844 45.8863 52.5844C43.1697 52.5844 40.8704 51.6461 38.9885 49.7696C37.1066 47.8931 36.1656 45.6004 36.1656 42.8915C36.1656 40.1826 37.1039 37.879 38.9804 35.9807C40.8569 34.0825 43.1496 33.1333 45.8585 33.1333C48.5674 33.1333 50.871 34.0815 52.7693 35.9778C54.6675 37.8741 55.6167 40.1908 55.6167 42.928C55.6167 43.942 55.4564 44.9667 55.1359 46.0021C54.8155 47.0375 54.2608 47.9778 53.4719 48.8229L64.0479 59.1667L62.125 61.0156ZM45.8437 49.9958C47.82 49.9958 49.5114 49.3031 50.9181 47.9177C52.3248 46.5322 53.0281 44.8618 53.0281 42.9063C53.0281 40.93 52.328 39.2386 50.9276 37.8319C49.5273 36.4252 47.8385 35.7219 45.8615 35.7219C43.8844 35.7219 42.2056 36.422 40.825 37.8224C39.4444 39.2227 38.7542 40.9115 38.7542 42.8885C38.7542 44.8656 39.4469 46.5444 40.8323 47.925C42.2178 49.3056 43.8882 49.9958 45.8437 49.9958Z"
            ></path>
        </symbol>
        <symbol fill="none" xmlns="http://www.w3.org/2000/svg" viewBox="0 0 16 16" id="checkbox">
          <rect width="16" height="16" rx="2" fill="#083644"/>
          <path fill-rule="evenodd" clip-rule="evenodd" d="M13.8162 4.20701C14.0701 4.47369 14.0597 4.89568 13.793 5.14954L6.08929 12.4829C5.95773 12.6081 5.78078 12.6742 5.59933 12.666C5.41788 12.6577 5.24766 12.5758 5.12803 12.4391L2.16506 9.05451C1.92254 8.77747 1.95052 8.35629 2.22755 8.11377C2.50459 7.87125 2.92577 7.89923 3.16829 8.17626L5.67342 11.0379L12.8737 4.1838C13.1404 3.92994 13.5624 3.94033 13.8162 4.20701Z" fill="white"/>
        </symbol>
        <symbol
          xmlns="http://www.w3.org/2000/svg"
          viewBox="0 0 42 42"
          id="play"
        >
          <rect width="42" height="42" rx="21" fill="white"/>
          <path d="M30.6428 18.3843C32.4523 19.3247 32.4523 21.6757 30.6428 22.6161L17.0714 29.6692C15.2618 30.6096 12.9999 29.4341 12.9999 27.5533V13.4471C12.9999 11.5663 15.2618 10.3908 17.0714 11.3312L30.6428 18.3843Z" fill="#0A2530"/>
        </symbol>
        <symbol
          xmlns="http://www.w3.org/2000/svg"
          viewBox="0 0 46 46"
          id="pause"
        >
          <rect x="2" y="2" width="42" height="42" rx="21" ry="21" fill="white"/>
          <path d="M19 17V29M26 17V29" stroke="#083644" stroke-width="4" stroke-linecap="round" stroke-linejoin="round"/>
        </symbol>
        <symbol
          xmlns="http://www.w3.org/2000/svg"
          viewBox="0 0 18 18"
          width="18"
          height="18"
          id="pencil"
        >
          <path d="M3.24975 12.036L12.4275 2.8575C12.7901 2.51053 13.2741 2.31931 13.7759 2.32479C14.2778 2.33028 14.7575 2.53203 15.1124 2.88684C15.4673 3.24166 15.6692 3.72134 15.6748 4.22316C15.6805 4.72499 15.4894 5.20907 15.1425 5.57175L5.96325 14.7503C5.75385 14.9597 5.48715 15.1024 5.19675 15.1605L2.25 15.75L2.8395 12.8025C2.89759 12.5121 3.04033 12.2454 3.24975 12.036Z" stroke="#083644" stroke-width="1.66667" stroke-linecap="round" stroke-linejoin="round"/>
          <path d="M10.875 4.875L13.125 7.125" stroke="#083644" stroke-width="1.66667" stroke-linecap="round" stroke-linejoin="round"/>
        </symbol>
</svg>
